<svg width="60" height="60" viewBox="0 0 60 60" fill="none" xmlns="http://www.w3.org/2000/svg">
    <circle cx="30" cy="30" r="30" transform="matrix(-1 0 0 1 60 0)" fill="white" />
    <path
        d="M23.2331 30.3183C23.0573 30.1425 23.0573 29.8578 23.2331 29.682L29.3831 23.532C29.5589 23.3562 29.8436 23.3562 30.0194 23.532L31.9694 25.482C32.1452 25.6578 32.1452 25.9425 31.9694 26.1183L28.0877 30L31.9697 33.8817C32.1455 34.0575 32.1455 34.3422 31.9697 34.518L30.0197 36.468C29.9318 36.5562 29.8166 36.6 29.7014 36.6C29.5862 36.6 29.471 36.5562 29.3831 36.4683L23.2331 30.3183Z"
        fill="#404D63" />
</svg>