<svg width="36" height="36" viewBox="0 0 36 36" fill="none" xmlns="http://www.w3.org/2000/svg">
<circle cx="18" cy="18" r="17.25" stroke="#404D63" stroke-opacity="0.15" stroke-width="1.5"/>
<path d="M18.0024 9.72412C13.4317 9.72412 9.72656 13.4292 9.72656 18C9.72656 22.1495 12.7799 25.5852 16.7627 26.1836C17.167 26.2444 17.5812 25.0345 18.0024 25.0345C18.3827 25.0345 18.7572 26.2502 19.1242 26.2005C23.1645 25.6531 26.2783 22.1905 26.2783 18C26.2783 13.4292 22.5732 9.72412 18.0024 9.72412Z" fill="#055CFF"/>
<path opacity="0.05" d="M19.534 16.8286C19.534 16.2394 19.6602 15.5372 20.2611 15.5372H22.0333L22.0329 13.2129L22.0122 12.8604L21.6622 12.8132C21.4106 12.7793 20.8871 12.7085 19.9217 12.7085C17.6173 12.7085 16.3482 14.0802 16.3482 16.5708V17.6045H14.3008V20.6078H16.3482V26.1104C16.882 26.2184 17.4344 26.2759 18.0001 26.2759C18.5248 26.2759 19.0362 26.2217 19.534 26.1282V20.6074H21.6166L22.0809 17.6041H19.534V16.8286Z" fill="black"/>
<path opacity="0.05" d="M19.3273 16.8283C19.3273 16.2684 19.4485 15.3299 20.2612 15.3299H21.8266V13.2246L21.8158 13.0425L21.6366 13.0181C21.3896 12.9846 20.8761 12.915 19.9223 12.915C17.7197 12.915 16.5557 14.1792 16.5557 16.5705V17.811H14.5078V20.4006H16.5553V26.1415C17.0253 26.2243 17.5062 26.2756 18.0002 26.2756C18.4529 26.2756 18.894 26.2292 19.3273 26.1593V20.4001H21.4393L21.8394 17.8106H19.3268V16.8283H19.3273Z" fill="black"/>
<path d="M19.1205 20.1934H21.2623L21.5987 18.0177H19.1205V16.8284C19.1205 15.9247 19.4159 15.1232 20.2613 15.1232H21.6198V13.2247C21.3811 13.1924 20.8762 13.1221 19.9224 13.1221C17.9304 13.1221 16.7627 14.1739 16.7627 16.5706V18.0181H14.7148V20.1938H16.7623V26.1834C17.1678 26.2439 17.5787 26.2757 18.0004 26.2757C18.3815 26.2757 18.7535 26.2501 19.1205 26.2004V20.1934Z" fill="white"/>
</svg>
