<svg width="36" height="36" viewBox="0 0 36 36" fill="none" xmlns="http://www.w3.org/2000/svg">
<circle cx="18" cy="18" r="17.25" stroke="#404D63" stroke-opacity="0.15" stroke-width="1.5"/>
<g clip-path="url(#clip0_4849_3171)">
<path d="M18.0035 9.44238C14.4301 9.44238 13.385 9.44607 13.1819 9.46292C12.4485 9.52388 11.9922 9.63935 11.4951 9.88687C11.1119 10.0771 10.8098 10.2977 10.5116 10.6068C9.96849 11.1706 9.63935 11.8642 9.5202 12.6886C9.46227 13.0889 9.44541 13.1705 9.44199 15.2149C9.44067 15.8964 9.44199 16.7933 9.44199 17.9963C9.44199 21.567 9.44594 22.611 9.46306 22.8138C9.5223 23.5274 9.63421 23.9764 9.87119 24.4675C10.3241 25.4075 11.1891 26.1132 12.2081 26.3765C12.561 26.4674 12.9507 26.5174 13.451 26.5411C13.6629 26.5503 15.8234 26.5569 17.9852 26.5569C20.1471 26.5569 22.3089 26.5543 22.5156 26.5438C23.0949 26.5165 23.4313 26.4713 23.8032 26.3752C24.8288 26.1106 25.678 25.4154 26.1401 24.4622C26.3725 23.9829 26.4903 23.5169 26.5436 22.8405C26.5552 22.6931 26.5601 20.342 26.5601 17.9941C26.5601 15.6457 26.5548 13.299 26.5432 13.1515C26.4893 12.4643 26.3714 12.0021 26.1315 11.5137C25.9347 11.1138 25.7162 10.8152 25.3989 10.5099C24.8326 9.96903 24.1401 9.63987 23.3149 9.52085C22.915 9.46305 22.8354 9.44594 20.7894 9.44238H18.0035Z" fill="url(#paint0_radial_4849_3171)"/>
<path d="M18.0035 9.44238C14.4301 9.44238 13.385 9.44607 13.1819 9.46292C12.4485 9.52388 11.9922 9.63935 11.4951 9.88687C11.1119 10.0771 10.8098 10.2977 10.5116 10.6068C9.96849 11.1706 9.63935 11.8642 9.5202 12.6886C9.46227 13.0889 9.44541 13.1705 9.44199 15.2149C9.44067 15.8964 9.44199 16.7933 9.44199 17.9963C9.44199 21.567 9.44594 22.611 9.46306 22.8138C9.5223 23.5274 9.63421 23.9764 9.87119 24.4675C10.3241 25.4075 11.1891 26.1132 12.2081 26.3765C12.561 26.4674 12.9507 26.5174 13.451 26.5411C13.6629 26.5503 15.8234 26.5569 17.9852 26.5569C20.1471 26.5569 22.3089 26.5543 22.5156 26.5438C23.0949 26.5165 23.4313 26.4713 23.8032 26.3752C24.8288 26.1106 25.678 25.4154 26.1401 24.4622C26.3725 23.9829 26.4903 23.5169 26.5436 22.8405C26.5552 22.6931 26.5601 20.342 26.5601 17.9941C26.5601 15.6457 26.5548 13.299 26.5432 13.1515C26.4893 12.4643 26.3714 12.0021 26.1315 11.5137C25.9347 11.1138 25.7162 10.8152 25.3989 10.5099C24.8326 9.96903 24.1401 9.63987 23.3149 9.52085C22.915 9.46305 22.8354 9.44594 20.7894 9.44238H18.0035Z" fill="url(#paint1_radial_4849_3171)"/>
<path d="M17.9998 11.6807C16.2835 11.6807 16.0681 11.6882 15.394 11.7188C14.7212 11.7497 14.262 11.8562 13.8602 12.0125C13.4446 12.1739 13.092 12.3898 12.7407 12.7412C12.3892 13.0925 12.1733 13.4451 12.0113 13.8606C11.8547 14.2625 11.748 14.7219 11.7177 15.3944C11.6876 16.0685 11.6797 16.2841 11.6797 18.0004C11.6797 19.7168 11.6873 19.9315 11.7179 20.6056C11.7488 21.2784 11.8553 21.7376 12.0115 22.1395C12.173 22.5551 12.3889 22.9077 12.7403 23.259C13.0915 23.6105 13.444 23.827 13.8594 23.9884C14.2615 24.1447 14.7208 24.2512 15.3935 24.282C16.0676 24.3127 16.2828 24.3202 17.999 24.3202C19.7154 24.3202 19.9301 24.3127 20.6042 24.282C21.277 24.2512 21.7367 24.1447 22.1388 23.9884C22.5543 23.827 22.9064 23.6105 23.2575 23.259C23.609 22.9077 23.825 22.5551 23.9869 22.1396C24.1423 21.7376 24.2489 21.2783 24.2805 20.6057C24.3108 19.9316 24.3187 19.7168 24.3187 18.0004C24.3187 16.2841 24.3108 16.0687 24.2805 15.3946C24.2489 14.7218 24.1423 14.2625 23.9869 13.8607C23.825 13.4451 23.609 13.0925 23.2575 12.7412C22.906 12.3897 22.5545 12.1737 22.1384 12.0125C21.7356 11.8562 21.2761 11.7497 20.6033 11.7188C19.9292 11.6882 19.7146 11.6807 17.9978 11.6807H17.9998ZM17.4329 12.8195C17.6011 12.8193 17.7889 12.8195 17.9998 12.8195C19.6871 12.8195 19.8871 12.8256 20.5534 12.8559C21.1696 12.884 21.504 12.987 21.7267 13.0735C22.0216 13.1881 22.2319 13.325 22.453 13.5462C22.6741 13.7674 22.8111 13.978 22.9259 14.2729C23.0124 14.4955 23.1155 14.8299 23.1435 15.446C23.1738 16.1123 23.1804 16.3124 23.1804 17.999C23.1804 19.6855 23.1738 19.8857 23.1435 20.5519C23.1153 21.1681 23.0124 21.5025 22.9259 21.725C22.8113 22.0199 22.6741 22.2299 22.453 22.451C22.2318 22.6722 22.0218 22.8091 21.7267 22.9236C21.5042 23.0105 21.1696 23.1132 20.5534 23.1414C19.8872 23.1717 19.6871 23.1783 17.9998 23.1783C16.3123 23.1783 16.1123 23.1717 15.4461 23.1414C14.83 23.113 14.4956 23.01 14.2727 22.9235C13.9778 22.809 13.7671 22.672 13.5459 22.4508C13.3247 22.2296 13.1878 22.0195 13.073 21.7245C12.9865 21.502 12.8834 21.1675 12.8554 20.5514C12.8251 19.8851 12.8191 19.685 12.8191 17.9974C12.8191 16.3097 12.8251 16.1107 12.8554 15.4445C12.8836 14.8283 12.9865 14.4939 13.073 14.2711C13.1876 13.9762 13.3247 13.7655 13.5459 13.5443C13.7671 13.3231 13.9778 13.1862 14.2727 13.0714C14.4954 12.9845 14.83 12.8818 15.4461 12.8535C16.0291 12.8272 16.255 12.8193 17.4329 12.818V12.8195ZM21.3731 13.8689C20.9544 13.8689 20.6148 14.2082 20.6148 14.627C20.6148 15.0457 20.9544 15.3854 21.3731 15.3854C21.7918 15.3854 22.1314 15.0457 22.1314 14.627C22.1314 14.2083 21.7918 13.8686 21.3731 13.8686V13.8689ZM17.9998 14.755C16.2075 14.755 14.7544 16.2081 14.7544 18.0004C14.7544 19.7927 16.2075 21.2452 17.9998 21.2452C19.792 21.2452 21.2446 19.7927 21.2446 18.0004C21.2446 16.2081 19.792 14.755 17.9998 14.755ZM17.9998 15.8938C19.1631 15.8938 20.1063 16.8369 20.1063 18.0004C20.1063 19.1638 19.1631 20.107 17.9998 20.107C16.8363 20.107 15.8933 19.1638 15.8933 18.0004C15.8933 16.8369 16.8363 15.8938 17.9998 15.8938Z" fill="white"/>
</g>
<defs>
<radialGradient id="paint0_radial_4849_3171" cx="0" cy="0" r="1" gradientUnits="userSpaceOnUse" gradientTransform="translate(13.9886 27.8751) rotate(-90) scale(16.9618 15.7796)">
<stop stop-color="#FFDD55"/>
<stop offset="0.1" stop-color="#FFDD55"/>
<stop offset="0.5" stop-color="#FF543E"/>
<stop offset="1" stop-color="#C837AB"/>
</radialGradient>
<radialGradient id="paint1_radial_4849_3171" cx="0" cy="0" r="1" gradientUnits="userSpaceOnUse" gradientTransform="translate(6.57394 10.6753) rotate(78.678) scale(7.58205 31.2605)">
<stop stop-color="#3771C8"/>
<stop offset="0.128" stop-color="#3771C8"/>
<stop offset="1" stop-color="#6600FF" stop-opacity="0"/>
</radialGradient>
<clipPath id="clip0_4849_3171">
<rect width="17.3793" height="17.3793" fill="white" transform="translate(9.30859 9.31055)"/>
</clipPath>
</defs>
</svg>
