<svg width="121" height="112" viewBox="0 0 121 112" fill="none" xmlns="http://www.w3.org/2000/svg">
<g id="Group 1632522478">
<g id="Group 1632520760" opacity="0.2">
<g id="Group 1632520752">
<path id="Vector 23" opacity="0.3" d="M75.8498 78.9201C76.005 78.9473 76.1088 79.0952 76.0816 79.2505L75.6378 81.7803C75.6106 81.9356 75.4627 82.0394 75.3074 82.0121C75.1522 81.9849 75.0484 81.837 75.0756 81.6817L75.4701 79.433L73.2213 79.0385C73.0661 79.0113 72.9623 78.8633 72.9895 78.7081C73.0168 78.5529 73.1647 78.4491 73.3199 78.4763L75.8498 78.9201ZM72.4084 85.5156C72.4084 85.6732 72.2807 85.801 72.1231 85.801C71.9655 85.801 71.8377 85.6733 71.8377 85.5156L72.4084 85.5156ZM72.5826 83.0984L72.3166 82.9952L72.5826 83.0984ZM71.8377 85.5156C71.8376 84.7264 71.9782 83.8678 72.3166 82.9952L72.8487 83.2016C72.5369 84.0058 72.4084 84.7941 72.4084 85.5156L71.8377 85.5156ZM72.3166 82.9952C72.855 81.6066 73.8903 80.1926 75.6366 78.9675L75.9644 79.4348C74.3036 80.5999 73.3434 81.9259 72.8487 83.2016L72.3166 82.9952Z" fill="#231F20"/>
<g id="Vector 22">
<path d="M97.1042 85.4297V27.6653H97.1009L96.7232 28.351V85.2714L97.1042 85.7226V85.4297Z" fill="#231F20"/>
<path d="M70.8919 27.6593V85.7226L71.2729 85.2714V28.351L70.8919 27.6593Z" fill="#231F20"/>
<path d="M69.998 27.9641V85.7285L70.8919 85.7226V27.6593L74.2953 27.6601L74.2962 27C74.2962 27 71.6766 27 69.998 27C69.998 27.3765 69.998 27.9641 69.998 27.9641Z" fill="#231F20"/>
<path d="M70.8919 27.6593L71.2729 28.351H74.2933L74.2953 27.6601L70.8919 27.6593Z" fill="#231F20"/>
<path d="M96.266 27.6653V28.351H96.7232L97.1009 27.6653H96.266Z" fill="#231F20"/>
<path d="M97.1042 27.6653V85.4297V85.7226L97.998 85.7285V27.9641V27H94.7304L95.5624 27.3605L96.266 27.6653H97.1009L97.1042 27.6593V27.6653Z" fill="#231F20"/>
<path d="M74.2953 27.6601L74.2933 28.351H95.504H95.885H96.266V27.6653L74.2953 27.6601Z" fill="#231F20"/>
<path d="M74.2962 27L74.2953 27.6601L96.266 27.6653L95.5624 27.3605L94.7304 27H74.2962Z" fill="#231F20"/>
</g>
<g id="Vector 24">
<path fill-rule="evenodd" clip-rule="evenodd" d="M95.4646 28.6172V85.931L74.8932 77.5773V35.7538V35.2559L75.5789 35.0346L76.3899 34.7729L95.4646 28.6172ZM75.2646 77.4114L94.7962 85.1012V60.2615V58.3805V29.3364L75.2646 35.5325V77.4114Z" fill="#231F20"/>
<path d="M94.7962 85.1012L75.2646 77.4114V35.5325L94.7962 29.3364V58.3805L94.3506 58.354V48.6151V48.4779V48.0906V29.8896L83.4337 33.3104L82.9881 33.45L82.8107 33.5055L75.6359 35.7538V49.529V49.8609V50.0245V57.5229V59.5786V63.5255V63.8021V63.9181V77.1901L82.8107 79.9897L83.4337 80.2328L83.805 80.3777L84.2039 80.5334L94.3506 84.4926V67.029V66.9002V66.4852V66.406V60.3168L94.7962 60.2615V85.1012Z" fill="#231F20"/>
<path d="M83.5568 48.9202L83.5596 49.2753L83.4337 49.2846L83.1391 49.3064L83.1357 48.9526L83.4337 48.9297L83.5568 48.9202Z" fill="#231F20"/>
<path d="M75.6359 49.8609V49.529L82.8107 48.9775L83.1357 48.9526L83.1391 49.3064L82.8107 49.3307L75.6359 49.8609Z" fill="#231F20"/>
<path d="M82.9881 33.45L83.4337 33.3104V48.9297L83.1357 48.9526L82.8107 48.9775V33.5055L82.9881 33.45Z" fill="#231F20"/>
<path d="M82.8107 49.3307V49.4842L77.4015 49.8915L75.6359 50.0245V49.8609L82.8107 49.3307Z" fill="#231F20"/>
<path d="M83.1391 49.3064L83.4337 49.2846V49.4372L82.8107 49.4842V49.3307L83.1391 49.3064Z" fill="#231F20"/>
<path d="M75.6359 63.8021V63.5255L77.3849 63.8021L82.8107 64.6602V49.4842L83.4337 49.4372V64.7587L83.6821 64.798L92.1226 66.1329L92.494 66.1916L92.578 66.2049L94.3506 66.4852V66.9002V67.029L94.2797 67.0172L83.4337 65.2143V80.2328L82.8107 79.9897V65.1108L75.6359 63.9181V63.8021Z" fill="#231F20"/>
<path fill-rule="evenodd" clip-rule="evenodd" d="M94.2797 48.0961V48.4831L92.578 48.6089L92.494 48.6151L92.0484 48.648L83.5596 49.2753L83.5568 48.9202L94.2797 48.0961Z" fill="#231F20"/>
<path d="M94.3506 48.4779V48.6151L94.2797 48.6204V48.4831L94.3506 48.4779Z" fill="#231F20"/>
<path d="M94.3506 48.0906V48.4779L94.2797 48.4831V48.0961L94.3506 48.0906Z" fill="#231F20"/>
<path d="M95.4646 85.931V28.6172L96.5211 28.9491V30.059V31.3207V32.5823V34.7729V35.2521V35.7538V85.4331L95.4646 85.931Z" fill="#231F20"/>
<path d="M92.0484 48.648L92.494 48.6151L92.578 48.6089L94.2797 48.4831V48.6204L92.578 48.7486L92.494 48.7549L92.049 48.7884L83.4337 49.4372V49.2846L83.5596 49.2753L92.0484 48.648Z" fill="#231F20"/>
<path d="M94.7962 58.3805V60.2615L94.3506 60.3168V58.354L94.7962 58.3805Z" fill="#231F20"/>
<path d="M96.5211 32.5823V31.3207V30.059H96.8416V31.3207V32.5823H96.5211Z" fill="#231F20"/>
<path d="M96.5213 59.602V58.3403V57.0787H96.8418V58.3403V59.602H96.5213Z" fill="#231F20"/>
<path d="M96.5193 84.9255V83.6638V82.4022H96.8397V83.6638V84.9255H96.5193Z" fill="#231F20"/>
<path d="M75.6359 63.5255V59.5786V57.5229V50.0245L77.4015 49.8915L77.3897 59.7367L77.3849 63.8021L75.6359 63.5255Z" fill="#231F20"/>
</g>
</g>
<g id="Vector 25">
<path fill-rule="evenodd" clip-rule="evenodd" d="M76.7968 57.8103L77.2104 57.759L76.7968 57.7343L76.7309 57.7304L75.487 57.6562L75.1514 57.6979L75.0734 57.7076L76.7968 57.8103Z" fill="#231F20"/>
<path fill-rule="evenodd" clip-rule="evenodd" d="M77.2104 57.759L76.7968 57.8103V58.6786L77.2104 58.72V57.759ZM77.2104 59.3064V59.5049L76.7968 59.5563V59.2234L77.2104 59.3064Z" fill="#231F20"/>
<path d="M75.8736 58.2688C76.0216 58.2688 76.1417 58.4199 76.1417 58.6064L76.1416 58.6131L75.6081 58.5597L75.3978 58.5386C75.3524 58.4334 75.2639 58.362 75.1622 58.362L75.8179 58.2761L75.8736 58.2688Z" fill="#231F20"/>
<path d="M77.6113 59.0376C77.6113 59.204 77.5042 59.3389 77.3721 59.3389L77.2104 59.3064L76.7968 59.2234L75.5906 58.9812L75.3552 58.934C75.4017 58.8733 75.4302 58.7907 75.4302 58.6997C75.4302 58.6414 75.4185 58.5865 75.3978 58.5386L75.6081 58.5597L76.1416 58.6131L76.7968 58.6786L77.2104 58.72L77.3721 58.7362C77.5042 58.7362 77.6113 58.8711 77.6113 59.0376Z" fill="#231F20"/>
<path d="M75.0734 58.381C75.1012 58.3687 75.131 58.362 75.1622 58.362C75.2639 58.362 75.3524 58.4334 75.3978 58.5386C75.4185 58.5865 75.4302 58.6414 75.4302 58.6997C75.4302 58.7907 75.4017 58.8733 75.3552 58.934C75.3188 58.9817 75.2713 59.0159 75.2179 59.0301C75.1999 59.0349 75.1813 59.0374 75.1622 59.0374C75.131 59.0374 75.1012 59.0307 75.0734 59.0184C74.969 58.9723 74.8941 58.847 74.8941 58.6997C74.8941 58.5524 74.969 58.4272 75.0734 58.381Z" fill="#231F20"/>
<path fill-rule="evenodd" clip-rule="evenodd" d="M75.0734 57.7076L76.7968 57.8103V58.6786L76.1416 58.6131L76.1417 58.6064C76.1417 58.4199 76.0216 58.2688 75.8736 58.2688C75.8545 58.2688 75.8359 58.2713 75.8179 58.2761L75.1622 58.362C75.131 58.362 75.1012 58.3687 75.0734 58.381V57.7076ZM75.5906 58.9812L76.7968 59.2234V59.5563L76.7309 59.5504L75.1514 59.4092L75.0734 59.4022V59.0423V59.0184C75.1012 59.0307 75.131 59.0374 75.1622 59.0374C75.1813 59.0374 75.1999 59.0349 75.2179 59.0301L75.5906 58.9812Z" fill="#231F20"/>
<path d="M75.3552 58.934L75.5906 58.9812L75.2179 59.0301C75.2713 59.0159 75.3188 58.9817 75.3552 58.934Z" fill="#231F20"/>
</g>
</g>
<g id="Group 1632521662">
<mask id="mask0_202_5253" style="mask-type:alpha" maskUnits="userSpaceOnUse" x="0" y="0" width="121" height="112">
<rect id="Rectangle 2167" width="121" height="112" transform="matrix(-1 0 0 1 121 0)" fill="#D9D9D9"/>
</mask>
<g mask="url(#mask0_202_5253)">
<g id="Group 1632521659">
<g id="Vector 22_2">
<path fill-rule="evenodd" clip-rule="evenodd" d="M48.8159 58.2821C48.798 58.2821 48.7802 58.2835 48.7628 58.2861C48.7927 58.2838 48.8113 58.2824 48.8159 58.2821Z" fill="#231F20"/>
<path fill-rule="evenodd" clip-rule="evenodd" d="M47.4346 59.652L47.4897 59.6476C47.4716 59.6505 47.4532 59.652 47.4346 59.652Z" fill="#231F20"/>
<path fill-rule="evenodd" clip-rule="evenodd" d="M51.2636 9.57812V101.683L26.637 88.2588V21.0468V20.2467L27.4579 19.8911L28.4287 19.4705L51.2636 9.57812ZM27.0815 87.9921L50.4634 100.35V60.4316V57.4088V10.7339L27.0815 20.6912V87.9921Z" fill="#231F20"/>
<path d="M51.2636 101.683V9.57812L52.2415 10.1116L52.2703 19.4705L52.2713 20.2406L52.2737 21.0468L52.3843 58.6815L52.1812 58.6166V57.693L51.5354 57.7416V60.3178L52.1812 60.2692V59.4746L52.3867 59.501L52.5083 100.883L51.2636 101.683Z" fill="#231F20"/>
<path d="M50.4634 100.35L27.0815 87.9921V20.6912L50.4634 10.7339V57.4088L49.93 57.3662V41.7154V41.4949V40.8726V11.6229L36.861 17.1202L36.3276 17.3446L36.1153 17.4339L27.526 21.0468V43.1841V43.7175V43.9804V65.677V66.1215V66.308V87.6364L36.1153 92.1356L36.861 92.5262L37.3056 92.759L37.7831 93.0092L49.93 99.3719V71.3072V71.1002V70.4334V70.306V60.5205L50.4634 60.4316V100.35Z" fill="#231F20"/>
<path d="M25.659 87.6434V20.2467H25.6629L26.1036 21.0468V87.4586L25.659 87.9851V87.6434Z" fill="#231F20"/>
<path d="M56.2423 20.2397V87.9851L55.7977 87.4586V21.0468L56.2423 20.2397Z" fill="#231F20"/>
<path d="M57.2852 20.5954V87.9921L56.2423 87.9851V20.2397L52.2713 20.2406L52.2703 19.4705C52.2703 19.4705 55.3267 19.4705 57.2852 19.4705C57.2852 19.9098 57.2852 20.5954 57.2852 20.5954Z" fill="#231F20"/>
<path d="M56.2423 20.2397L55.7977 21.0468H52.2737L52.2713 20.2406L56.2423 20.2397Z" fill="#231F20"/>
<path d="M26.637 20.2467V21.0468H26.1036L25.6629 20.2467H26.637Z" fill="#231F20"/>
<path d="M37.0085 42.2057L37.0118 42.7765L36.861 42.7914L36.5084 42.8264L36.5044 42.2578L36.861 42.221L37.0085 42.2057Z" fill="#231F20"/>
<path d="M27.526 43.7175V43.1841L36.1153 42.2979L36.5044 42.2578L36.5084 42.8264L36.1153 42.8654L27.526 43.7175Z" fill="#231F20"/>
<path d="M47.7074 69.9615L47.2629 69.8671L47.2304 59.5892C47.2921 59.6294 47.3614 59.652 47.4346 59.652C47.4532 59.652 47.4716 59.6505 47.4897 59.6476L47.7074 59.6306V60.2538V69.9615Z" fill="#231F20"/>
<path d="M25.659 20.2467V87.6434V87.9851L24.6161 87.9921V20.5954V19.4705H28.4287L27.4579 19.8911L26.637 20.2467H25.6629L25.659 20.2397V20.2467Z" fill="#231F20"/>
<path d="M43.7311 58.7823C43.7311 58.7207 43.7377 58.6611 43.7499 58.6048C43.7915 58.4135 43.9978 58.3342 44.1924 58.3552L44.571 58.3962L47.0478 58.6641C47.093 58.5756 47.1546 58.5033 47.2268 58.4553C47.2894 58.4135 47.3599 58.3901 47.4346 58.3901C47.5363 58.3901 47.6305 58.4337 47.7074 58.5078C47.8262 58.6223 47.9035 58.8095 47.9035 59.021C47.9035 59.2326 47.8262 59.4198 47.7074 59.5342C47.6446 59.5948 47.5703 59.635 47.4897 59.6476L47.4346 59.652C47.3614 59.652 47.2921 59.6294 47.2304 59.5892C47.1393 59.5298 47.0646 59.432 47.0181 59.3113L44.5654 59.1778L44.1415 59.1548C43.9377 59.1437 43.7407 59.0233 43.7319 58.8194C43.7314 58.8071 43.7311 58.7947 43.7311 58.7823Z" fill="#231F20"/>
<path d="M47.7074 57.3199L49.93 57.4977V60.5205L49.8451 60.5103L47.8081 60.2659L47.7074 60.2538V59.6306L48.8159 59.5439C49.0749 59.5439 49.2849 59.2615 49.2849 58.913C49.2849 58.5646 49.0749 58.2821 48.8159 58.2821C48.798 58.2821 48.7802 58.2835 48.7628 58.2861C48.5996 58.2986 48.1002 58.3378 47.7074 58.3687V57.3199Z" fill="#231F20"/>
<path d="M49.93 57.4977L50.4634 57.4088V60.4316L49.93 60.5205V57.4977Z" fill="#231F20"/>
<path d="M51.5354 57.7416L52.1812 57.693V58.6166C52.0793 58.5842 51.8659 58.5388 51.827 58.6166C51.7882 58.6943 51.8108 59.1906 51.827 59.429L52.1812 59.4746V60.2692L51.5354 60.3178V57.7416Z" fill="#231F20"/>
<path d="M51.827 58.6166C51.8659 58.5388 52.0793 58.5842 52.1812 58.6166L52.3843 58.6815L52.5284 58.7277V59.5193L52.3867 59.501L52.1812 59.4746L51.827 59.429C51.8108 59.1906 51.7882 58.6943 51.827 58.6166Z" fill="#BEBFC0"/>
<path d="M49.2849 58.913C49.2849 59.2615 49.0749 59.5439 48.8159 59.5439L47.7074 59.6306L47.4897 59.6476C47.5703 59.635 47.6446 59.5948 47.7074 59.5342C47.8262 59.4198 47.9035 59.2326 47.9035 59.021C47.9035 58.8095 47.8262 58.6223 47.7074 58.5078C47.6305 58.4337 47.5363 58.3901 47.4346 58.3901L47.7074 58.3687C48.1002 58.3378 48.5996 58.2986 48.7628 58.2861C48.7927 58.2838 48.8113 58.2824 48.8159 58.2821C49.0749 58.2821 49.2849 58.5646 49.2849 58.913Z" fill="#231F20"/>
<path d="M36.3276 17.3446L36.861 17.1202V42.221L36.5044 42.2578L36.1153 42.2979V17.4339L36.3276 17.3446Z" fill="#231F20"/>
<path d="M36.1153 42.8654V43.1121L27.526 43.9804V43.7175L36.1153 42.8654Z" fill="#231F20"/>
<path d="M36.5084 42.8264L36.861 42.7914V43.0367L36.1153 43.1121V42.8654L36.5084 42.8264Z" fill="#231F20"/>
<path d="M27.526 66.1215V65.677L36.1153 67.5005V43.1121L36.861 43.0367V67.6588L37.1584 67.722L47.2629 69.8671L47.7074 69.9615L47.8081 69.9829L49.93 70.4334V71.1002V71.3072L49.8451 71.2882L36.861 68.391V92.5262L36.1153 92.1356V68.2246L27.526 66.308V66.1215Z" fill="#231F20"/>
<path fill-rule="evenodd" clip-rule="evenodd" d="M49.93 57.4977L50.4634 57.4088L49.93 57.3662L49.8451 57.3594L48.2408 57.231L47.7074 57.3199L49.93 57.4977Z" fill="#231F20"/>
<path d="M47.7074 57.3199V57.1884L47.8081 57.1964L48.2408 57.231L47.7074 57.3199Z" fill="#231F20"/>
<path d="M49.93 70.4334L47.8081 69.9829L47.7074 69.9615V69.8341L47.8081 69.8555L49.8451 70.288L49.93 70.306V70.4334Z" fill="#231F20"/>
<path fill-rule="evenodd" clip-rule="evenodd" d="M47.8081 57.1964L48.2408 57.231L49.8451 57.3594V41.8027L47.8081 42.0087V57.1964Z" fill="#231F20"/>
<path fill-rule="evenodd" clip-rule="evenodd" d="M47.7074 41.7154L47.174 41.7683L37.0118 42.7765L36.861 42.7914V43.0367L47.1747 41.994L47.2268 58.4553C47.2894 58.4135 47.3599 58.3901 47.4346 58.3901L47.7074 58.3687V57.3199V57.1884V42.0189V41.9401L47.8081 41.9299L49.8451 41.724V41.5033L47.8081 41.7054L47.7074 41.7154Z" fill="#231F20"/>
<path fill-rule="evenodd" clip-rule="evenodd" d="M49.8451 60.5103V70.288L47.8081 69.8555V60.2659L49.8451 60.5103Z" fill="#231F20"/>
<path fill-rule="evenodd" clip-rule="evenodd" d="M49.8451 40.8813V41.5033L47.8081 41.7054L47.7074 41.7154L47.174 41.7683L37.0118 42.7765L37.0085 42.2057L49.8451 40.8813Z" fill="#231F20"/>
<path d="M47.7074 69.8341V60.2538L47.8081 60.2659V69.8555L47.7074 69.8341Z" fill="#231F20"/>
<path d="M49.93 60.5205V70.306L49.8451 70.288V60.5103L49.93 60.5205Z" fill="#231F20"/>
<path fill-rule="evenodd" clip-rule="evenodd" d="M49.93 41.7942V41.7154L49.8451 41.724V41.8027L49.93 41.7942Z" fill="#231F20"/>
<path d="M47.7074 41.9401L47.8081 41.9299L49.8451 41.724V41.8027L47.8081 42.0087V57.1964L47.7074 57.1884V42.0189V41.9401Z" fill="#231F20"/>
<path d="M49.93 41.7942V57.3662L49.8451 57.3594V41.8027L49.93 41.7942Z" fill="#231F20"/>
<path d="M49.93 41.4949V41.7154L49.8451 41.724V41.5033L49.93 41.4949Z" fill="#231F20"/>
<path d="M49.93 40.8726V41.4949L49.8451 41.5033V40.8813L49.93 40.8726Z" fill="#231F20"/>
</g>
<path id="Vector 23_2" opacity="0.3" d="M56.8472 89.841C56.7172 89.7518 56.684 89.5742 56.7731 89.4442C56.8623 89.3142 57.0399 89.2811 57.1699 89.3702L56.8472 89.841ZM54.035 100.115C53.8945 100.043 53.8386 99.8712 53.9102 99.7308L55.0757 97.442C55.1473 97.3015 55.3191 97.2457 55.4595 97.3172C55.6 97.3887 55.6559 97.5606 55.5843 97.701L54.5483 99.7355L56.5828 100.772C56.7232 100.843 56.7791 101.015 56.7076 101.155C56.636 101.296 56.4642 101.352 56.3238 101.28L54.035 100.115ZM57.1699 89.3702C59.3379 90.8563 60.3261 92.9999 59.8718 95.0801C59.419 97.1538 57.5562 99.0575 54.2527 100.132L54.0762 99.5889C57.2638 98.5524 58.9195 96.7659 59.3142 94.9584C59.7074 93.1575 58.8721 91.229 56.8472 89.841L57.1699 89.3702Z" fill="#231F20"/>
</g>
</g>
</g>
</g>
</svg>
