<svg width="36" height="36" viewBox="0 0 36 36" fill="none" xmlns="http://www.w3.org/2000/svg">
<circle cx="18" cy="18" r="17.25" stroke="#404D63" stroke-opacity="0.15" stroke-width="1.5"/>
<path d="M18.0024 26.2758C22.5731 26.2758 26.2783 22.5706 26.2783 18C26.2783 13.4293 22.5731 9.72412 18.0024 9.72412C13.4318 9.72412 9.72656 13.4293 9.72656 18C9.72656 22.5706 13.4318 26.2758 18.0024 26.2758Z" fill="#E60023"/>
<path d="M18.1833 12.793C14.6113 12.793 12.7148 15.1907 12.7148 17.8011C12.7148 19.0151 13.361 20.5261 14.3948 21.0074C14.5514 21.0803 14.6355 21.0488 14.6714 20.8969C14.6991 20.7817 14.8385 20.2196 14.9012 19.9583C14.9213 19.8749 14.9115 19.8033 14.844 19.7211C14.5018 19.3061 14.2281 18.5434 14.2281 17.8323C14.2281 16.0069 15.6101 14.2406 17.9646 14.2406C19.9976 14.2406 21.421 15.6262 21.421 17.6076C21.421 19.8462 20.2904 21.3973 18.8196 21.3973C18.0072 21.3973 17.399 20.7254 17.5941 19.9013C17.8281 18.9177 18.2797 17.8565 18.2797 17.1461C18.2797 16.5107 17.9391 15.9804 17.2328 15.9804C16.4024 15.9804 15.7355 16.8392 15.7355 17.9902C15.7355 18.7226 15.9832 19.2185 15.9832 19.2185C15.9832 19.2185 15.1629 22.6867 15.0127 23.3323C14.8463 24.0449 14.9111 25.046 14.9831 25.7006C15.1698 25.7738 15.3565 25.8469 15.5495 25.9067C15.8875 25.3572 16.3916 24.4561 16.5784 23.7375C16.6793 23.3501 17.0943 21.77 17.0943 21.77C17.364 22.2848 18.1521 22.7205 18.9908 22.7205C21.4866 22.7205 23.2853 20.4252 23.2853 17.5729C23.2853 14.8384 21.0543 12.793 18.1833 12.793Z" fill="white"/>
</svg>
