<svg width="121" height="112" viewBox="0 0 121 112" fill="none" xmlns="http://www.w3.org/2000/svg">
<g id="Group 1632522479">
<g id="Group 1632520760" opacity="0.2">
<g id="Group 1632520752">
<path id="Vector 23" opacity="0.3" d="M92.1463 78.9201C91.9911 78.9473 91.8873 79.0952 91.9145 79.2505L92.3583 81.7803C92.3855 81.9356 92.5334 82.0394 92.6887 82.0121C92.8439 81.9849 92.9477 81.837 92.9205 81.6817L92.526 79.433L94.7748 79.0385C94.93 79.0113 95.0338 78.8633 95.0066 78.7081C94.9793 78.5529 94.8314 78.4491 94.6762 78.4763L92.1463 78.9201ZM95.5877 85.5156C95.5876 85.6732 95.7154 85.801 95.873 85.801C96.0306 85.801 96.1584 85.6733 96.1584 85.5156L95.5877 85.5156ZM95.4135 83.0984L95.6795 82.9952L95.4135 83.0984ZM96.1584 85.5156C96.1585 84.7264 96.0179 83.8678 95.6795 82.9952L95.1474 83.2016C95.4592 84.0058 95.5877 84.7941 95.5877 85.5156L96.1584 85.5156ZM95.6795 82.9952C95.1411 81.6066 94.1058 80.1926 92.3595 78.9675L92.0317 79.4348C93.6925 80.5999 94.6527 81.9259 95.1474 83.2016L95.6795 82.9952Z" fill="#231F20"/>
<g id="Vector 22">
<path d="M70.8919 85.4297V27.6653H70.8952L71.2729 28.351V85.2714L70.8919 85.7226V85.4297Z" fill="#231F20"/>
<path d="M97.1042 27.6593V85.7226L96.7232 85.2714V28.351L97.1042 27.6593Z" fill="#231F20"/>
<path d="M97.998 27.9641V85.7285L97.1042 85.7226V27.6593L93.7008 27.6601L93.6999 27C93.6999 27 96.3195 27 97.998 27C97.998 27.3765 97.998 27.9641 97.998 27.9641Z" fill="#231F20"/>
<path d="M97.1042 27.6593L96.7232 28.351H93.7028L93.7008 27.6601L97.1042 27.6593Z" fill="#231F20"/>
<path d="M71.7301 27.6653V28.351H71.2729L70.8952 27.6653H71.7301Z" fill="#231F20"/>
<path d="M70.8919 27.6653V85.4297V85.7226L69.998 85.7285V27.9641V27H73.2657L72.4337 27.3605L71.7301 27.6653H70.8952L70.8919 27.6593V27.6653Z" fill="#231F20"/>
<path d="M93.7008 27.6601L93.7028 28.351H72.4921H72.1111H71.7301V27.6653L93.7008 27.6601Z" fill="#231F20"/>
<path d="M93.6999 27L93.7008 27.6601L71.7301 27.6653L72.4337 27.3605L73.2657 27H93.6999Z" fill="#231F20"/>
</g>
<g id="Vector 24">
<path fill-rule="evenodd" clip-rule="evenodd" d="M72.5315 28.6172V85.931L93.1028 77.5773V35.7538V35.2559L92.4171 35.0346L91.6062 34.7729L72.5315 28.6172ZM92.7315 77.4114L73.1999 85.1012V60.2615V58.3805V29.3364L92.7315 35.5325V77.4114Z" fill="#231F20"/>
<path d="M73.1999 85.1012L92.7315 77.4114V35.5325L73.1999 29.3364V58.3805L73.6455 58.354V48.6151V48.4779V48.0906V29.8896L84.5624 33.3104L85.008 33.45L85.1854 33.5055L92.3602 35.7538V49.529V49.8609V50.0245V57.5229V59.5786V63.5255V63.8021V63.9181V77.1901L85.1854 79.9897L84.5624 80.2328L84.1911 80.3777L83.7922 80.5334L73.6455 84.4926V67.029V66.9002V66.4852V66.406V60.3168L73.1999 60.2615V85.1012Z" fill="#231F20"/>
<path d="M84.4393 48.9202L84.4365 49.2753L84.5624 49.2846L84.857 49.3064L84.8604 48.9526L84.5624 48.9297L84.4393 48.9202Z" fill="#231F20"/>
<path d="M92.3602 49.8609V49.529L85.1854 48.9775L84.8604 48.9526L84.857 49.3064L85.1854 49.3307L92.3602 49.8609Z" fill="#231F20"/>
<path d="M85.008 33.45L84.5624 33.3104V48.9297L84.8604 48.9526L85.1854 48.9775V33.5055L85.008 33.45Z" fill="#231F20"/>
<path d="M85.1854 49.3307V49.4842L90.5946 49.8915L92.3602 50.0245V49.8609L85.1854 49.3307Z" fill="#231F20"/>
<path d="M84.857 49.3064L84.5624 49.2846V49.4372L85.1854 49.4842V49.3307L84.857 49.3064Z" fill="#231F20"/>
<path d="M92.3602 63.8021V63.5255L90.6112 63.8021L85.1854 64.6602V49.4842L84.5624 49.4372V64.7587L84.314 64.798L75.8735 66.1329L75.5021 66.1916L75.4181 66.2049L73.6455 66.4852V66.9002V67.029L73.7164 67.0172L84.5624 65.2143V80.2328L85.1854 79.9897V65.1108L92.3602 63.9181V63.8021Z" fill="#231F20"/>
<path fill-rule="evenodd" clip-rule="evenodd" d="M73.7164 48.0961V48.4831L75.4181 48.6089L75.5021 48.6151L75.9477 48.648L84.4365 49.2753L84.4393 48.9202L73.7164 48.0961Z" fill="#231F20"/>
<path d="M73.6455 48.4779V48.6151L73.7164 48.6204V48.4831L73.6455 48.4779Z" fill="#231F20"/>
<path d="M73.6455 48.0906V48.4779L73.7164 48.4831V48.0961L73.6455 48.0906Z" fill="#231F20"/>
<path d="M72.5315 85.931V28.6172L71.475 28.9491V30.059V31.3207V32.5823V34.7729V35.2521V35.7538V85.4331L72.5315 85.931Z" fill="#231F20"/>
<path d="M75.9477 48.648L75.5021 48.6151L75.4181 48.6089L73.7164 48.4831V48.6204L75.4181 48.7486L75.5021 48.7549L75.9471 48.7884L84.5624 49.4372V49.2846L84.4365 49.2753L75.9477 48.648Z" fill="#231F20"/>
<path d="M73.1999 58.3805V60.2615L73.6455 60.3168V58.354L73.1999 58.3805Z" fill="#231F20"/>
<path d="M71.475 32.5823V31.3207V30.059H71.1545V31.3207V32.5823H71.475Z" fill="#231F20"/>
<path d="M71.4748 59.602V58.3403V57.0787H71.1543V58.3403V59.602H71.4748Z" fill="#231F20"/>
<path d="M71.4768 84.9255V83.6638V82.4022H71.1563V83.6638V84.9255H71.4768Z" fill="#231F20"/>
<path d="M92.3602 63.5255V59.5786V57.5229V50.0245L90.5946 49.8915L90.6063 59.7367L90.6112 63.8021L92.3602 63.5255Z" fill="#231F20"/>
</g>
</g>
<g id="Vector 25">
<path fill-rule="evenodd" clip-rule="evenodd" d="M91.1993 57.8103L90.7857 57.759L91.1993 57.7343L91.2652 57.7304L92.5091 57.6562L92.8447 57.6979L92.9227 57.7076L91.1993 57.8103Z" fill="#231F20"/>
<path fill-rule="evenodd" clip-rule="evenodd" d="M90.7857 57.759L91.1993 57.8103V58.6786L90.7857 58.72V57.759ZM90.7857 59.3064V59.5049L91.1993 59.5563V59.2234L90.7857 59.3064Z" fill="#231F20"/>
<path d="M92.1225 58.2688C91.9744 58.2688 91.8544 58.4199 91.8544 58.6064L91.8545 58.6131L92.388 58.5597L92.5983 58.5386C92.6437 58.4334 92.7322 58.362 92.8339 58.362L92.1782 58.2761L92.1225 58.2688Z" fill="#231F20"/>
<path d="M90.3848 59.0376C90.3848 59.204 90.4919 59.3389 90.624 59.3389L90.7857 59.3064L91.1993 59.2234L92.4055 58.9812L92.6408 58.934C92.5944 58.8733 92.5659 58.7907 92.5659 58.6997C92.5659 58.6414 92.5776 58.5865 92.5983 58.5386L92.388 58.5597L91.8545 58.6131L91.1993 58.6786L90.7857 58.72L90.624 58.7362C90.4919 58.7362 90.3848 58.8711 90.3848 59.0376Z" fill="#231F20"/>
<path d="M92.9227 58.381C92.8949 58.3687 92.865 58.362 92.8339 58.362C92.7322 58.362 92.6437 58.4334 92.5983 58.5386C92.5776 58.5865 92.5659 58.6414 92.5659 58.6997C92.5659 58.7907 92.5944 58.8733 92.6408 58.934C92.6773 58.9817 92.7248 59.0159 92.7782 59.0301C92.7962 59.0349 92.8148 59.0374 92.8339 59.0374C92.865 59.0374 92.8949 59.0307 92.9227 59.0184C93.0271 58.9723 93.102 58.847 93.102 58.6997C93.102 58.5524 93.0271 58.4272 92.9227 58.381Z" fill="#231F20"/>
<path fill-rule="evenodd" clip-rule="evenodd" d="M92.9227 57.7076L91.1993 57.8103V58.6786L91.8545 58.6131L91.8544 58.6064C91.8544 58.4199 91.9744 58.2688 92.1225 58.2688C92.1416 58.2688 92.1602 58.2713 92.1782 58.2761L92.8339 58.362C92.865 58.362 92.8949 58.3687 92.9227 58.381V57.7076ZM92.4055 58.9812L91.1993 59.2234V59.5563L91.2652 59.5504L92.8447 59.4092L92.9227 59.4022V59.0423V59.0184C92.8949 59.0307 92.865 59.0374 92.8339 59.0374C92.8148 59.0374 92.7962 59.0349 92.7782 59.0301L92.4055 58.9812Z" fill="#231F20"/>
<path d="M92.6408 58.934L92.4055 58.9812L92.7782 59.0301C92.7248 59.0159 92.6773 58.9817 92.6408 58.934Z" fill="#231F20"/>
</g>
</g>
<g id="Group 1632521662">
<mask id="mask0_202_5235" style="mask-type:alpha" maskUnits="userSpaceOnUse" x="0" y="0" width="121" height="112">
<rect id="Rectangle 2167" width="121" height="112" transform="matrix(-1 0 0 1 121 0)" fill="#D9D9D9"/>
</mask>
<g mask="url(#mask0_202_5235)">
<g id="Group 1632521659">
<g id="Vector 22_2">
<path fill-rule="evenodd" clip-rule="evenodd" d="M36.2153 58.2821C36.2333 58.2821 36.251 58.2835 36.2684 58.2861C36.2386 58.2838 36.22 58.2824 36.2153 58.2821Z" fill="#231F20"/>
<path fill-rule="evenodd" clip-rule="evenodd" d="M37.5967 59.652L37.5416 59.6476C37.5597 59.6505 37.578 59.652 37.5967 59.652Z" fill="#231F20"/>
<path fill-rule="evenodd" clip-rule="evenodd" d="M33.7677 9.57812V101.683L58.3943 88.2588V21.0468V20.2467L57.5734 19.8911L56.6026 19.4705L33.7677 9.57812ZM57.9497 87.9921L34.5678 100.35V60.4316V57.4088V10.7339L57.9497 20.6912V87.9921Z" fill="#231F20"/>
<path d="M33.7677 101.683V9.57812L32.7897 10.1116L32.761 19.4705L32.7599 20.2406L32.7576 21.0468L32.647 58.6815L32.8501 58.6166V57.693L33.4959 57.7416V60.3178L32.8501 60.2692V59.4746L32.6446 59.501L32.523 100.883L33.7677 101.683Z" fill="#231F20"/>
<path d="M34.5678 100.35L57.9497 87.9921V20.6912L34.5678 10.7339V57.4088L35.1012 57.3662V41.7154V41.4949V40.8726V11.6229L48.1702 17.1202L48.7036 17.3446L48.916 17.4339L57.5052 21.0468V43.1841V43.7175V43.9804V65.677V66.1215V66.308V87.6364L48.916 92.1356L48.1702 92.5262L47.7257 92.759L47.2482 93.0092L35.1012 99.3719V71.3072V71.1002V70.4334V70.306V60.5205L34.5678 60.4316V100.35Z" fill="#231F20"/>
<path d="M59.3722 87.6434V20.2467H59.3684L58.9277 21.0468V87.4586L59.3722 87.9851V87.6434Z" fill="#231F20"/>
<path d="M28.789 20.2397V87.9851L29.2335 87.4586V21.0468L28.789 20.2397Z" fill="#231F20"/>
<path d="M27.7461 20.5954V87.9921L28.789 87.9851V20.2397L32.7599 20.2406L32.761 19.4705C32.761 19.4705 29.7045 19.4705 27.7461 19.4705C27.7461 19.9098 27.7461 20.5954 27.7461 20.5954Z" fill="#231F20"/>
<path d="M28.789 20.2397L29.2335 21.0468H32.7576L32.7599 20.2406L28.789 20.2397Z" fill="#231F20"/>
<path d="M58.3943 20.2467V21.0468H58.9277L59.3684 20.2467H58.3943Z" fill="#231F20"/>
<path d="M48.0228 42.2057L48.0194 42.7765L48.1702 42.7914L48.5229 42.8264L48.5269 42.2578L48.1702 42.221L48.0228 42.2057Z" fill="#231F20"/>
<path d="M57.5052 43.7175V43.1841L48.916 42.2979L48.5269 42.2578L48.5229 42.8264L48.916 42.8654L57.5052 43.7175Z" fill="#231F20"/>
<path d="M37.3238 69.9615L37.7684 69.8671L37.8009 59.5892C37.7392 59.6294 37.6699 59.652 37.5967 59.652C37.578 59.652 37.5597 59.6505 37.5416 59.6476L37.3238 59.6306V60.2538V69.9615Z" fill="#231F20"/>
<path d="M59.3722 20.2467V87.6434V87.9851L60.4151 87.9921V20.5954V19.4705H56.6026L57.5734 19.8911L58.3943 20.2467H59.3684L59.3722 20.2397V20.2467Z" fill="#231F20"/>
<path d="M41.3002 58.7823C41.3002 58.7207 41.2936 58.6611 41.2814 58.6048C41.2398 58.4135 41.0335 58.3342 40.8389 58.3552L40.4603 58.3962L37.9835 58.6641C37.9382 58.5756 37.8766 58.5033 37.8045 58.4553C37.7418 58.4135 37.6713 58.3901 37.5967 58.3901C37.4949 58.3901 37.4007 58.4337 37.3238 58.5078C37.2051 58.6223 37.1277 58.8095 37.1277 59.021C37.1277 59.2326 37.2051 59.4198 37.3238 59.5342C37.3866 59.5948 37.461 59.635 37.5416 59.6476L37.5967 59.652C37.6699 59.652 37.7392 59.6294 37.8009 59.5892C37.892 59.5298 37.9666 59.432 38.0132 59.3113L40.4658 59.1778L40.8898 59.1548C41.0936 59.1437 41.2906 59.0233 41.2994 58.8194C41.2999 58.8071 41.3002 58.7947 41.3002 58.7823Z" fill="#231F20"/>
<path d="M37.3238 57.3199L35.1012 57.4977V60.5205L35.1861 60.5103L37.2232 60.2659L37.3238 60.2538V59.6306L36.2153 59.5439C35.9563 59.5439 35.7464 59.2615 35.7464 58.913C35.7464 58.5646 35.9563 58.2821 36.2153 58.2821C36.2333 58.2821 36.251 58.2835 36.2684 58.2861C36.4316 58.2986 36.931 58.3378 37.3238 58.3687V57.3199Z" fill="#231F20"/>
<path d="M35.1012 57.4977L34.5678 57.4088V60.4316L35.1012 60.5205V57.4977Z" fill="#231F20"/>
<path d="M33.4959 57.7416L32.8501 57.693V58.6166C32.9519 58.5842 33.1653 58.5388 33.2042 58.6166C33.2431 58.6943 33.2204 59.1906 33.2042 59.429L32.8501 59.4746V60.2692L33.4959 60.3178V57.7416Z" fill="#231F20"/>
<path d="M33.2042 58.6166C33.1653 58.5388 32.9519 58.5842 32.8501 58.6166L32.647 58.6815L32.5029 58.7277V59.5193L32.6446 59.501L32.8501 59.4746L33.2042 59.429C33.2204 59.1906 33.2431 58.6943 33.2042 58.6166Z" fill="#BEBFC0"/>
<path d="M35.7464 58.913C35.7464 59.2615 35.9563 59.5439 36.2153 59.5439L37.3238 59.6306L37.5416 59.6476C37.461 59.635 37.3866 59.5948 37.3238 59.5342C37.2051 59.4198 37.1277 59.2326 37.1277 59.021C37.1277 58.8095 37.2051 58.6223 37.3238 58.5078C37.4007 58.4337 37.4949 58.3901 37.5967 58.3901L37.3238 58.3687C36.931 58.3378 36.4316 58.2986 36.2684 58.2861C36.2386 58.2838 36.22 58.2824 36.2153 58.2821C35.9563 58.2821 35.7464 58.5646 35.7464 58.913Z" fill="#231F20"/>
<path d="M48.7036 17.3446L48.1702 17.1202V42.221L48.5269 42.2578L48.916 42.2979V17.4339L48.7036 17.3446Z" fill="#231F20"/>
<path d="M48.916 42.8654V43.1121L57.5052 43.9804V43.7175L48.916 42.8654Z" fill="#231F20"/>
<path d="M48.5229 42.8264L48.1702 42.7914V43.0367L48.916 43.1121V42.8654L48.5229 42.8264Z" fill="#231F20"/>
<path d="M57.5052 66.1215V65.677L48.916 67.5005V43.1121L48.1702 43.0367V67.6588L47.8728 67.722L37.7684 69.8671L37.3238 69.9615L37.2232 69.9829L35.1012 70.4334V71.1002V71.3072L35.1861 71.2882L48.1702 68.391V92.5262L48.916 92.1356V68.2246L57.5052 66.308V66.1215Z" fill="#231F20"/>
<path fill-rule="evenodd" clip-rule="evenodd" d="M35.1012 57.4977L34.5678 57.4088L35.1012 57.3662L35.1861 57.3594L36.7904 57.231L37.3238 57.3199L35.1012 57.4977Z" fill="#231F20"/>
<path d="M37.3238 57.3199V57.1884L37.2232 57.1964L36.7904 57.231L37.3238 57.3199Z" fill="#231F20"/>
<path d="M35.1012 70.4334L37.2232 69.9829L37.3238 69.9615V69.8341L37.2232 69.8555L35.1861 70.288L35.1012 70.306V70.4334Z" fill="#231F20"/>
<path fill-rule="evenodd" clip-rule="evenodd" d="M37.2232 57.1964L36.7904 57.231L35.1861 57.3594V41.8027L37.2232 42.0087V57.1964Z" fill="#231F20"/>
<path fill-rule="evenodd" clip-rule="evenodd" d="M37.3238 41.7154L37.8573 41.7683L48.0194 42.7765L48.1702 42.7914V43.0367L37.8566 41.994L37.8045 58.4553C37.7418 58.4135 37.6713 58.3901 37.5967 58.3901L37.3238 58.3687V57.3199V57.1884V42.0189V41.9401L37.2232 41.9299L35.1861 41.724V41.5033L37.2232 41.7054L37.3238 41.7154Z" fill="#231F20"/>
<path fill-rule="evenodd" clip-rule="evenodd" d="M35.1861 60.5103V70.288L37.2232 69.8555V60.2659L35.1861 60.5103Z" fill="#231F20"/>
<path fill-rule="evenodd" clip-rule="evenodd" d="M35.1861 40.8813V41.5033L37.2232 41.7054L37.3238 41.7154L37.8573 41.7683L48.0194 42.7765L48.0228 42.2057L35.1861 40.8813Z" fill="#231F20"/>
<path d="M37.3238 69.8341V60.2538L37.2232 60.2659V69.8555L37.3238 69.8341Z" fill="#231F20"/>
<path d="M35.1012 60.5205V70.306L35.1861 70.288V60.5103L35.1012 60.5205Z" fill="#231F20"/>
<path fill-rule="evenodd" clip-rule="evenodd" d="M35.1012 41.7942V41.7154L35.1861 41.724V41.8027L35.1012 41.7942Z" fill="#231F20"/>
<path d="M37.3238 41.9401L37.2232 41.9299L35.1861 41.724V41.8027L37.2232 42.0087V57.1964L37.3238 57.1884V42.0189V41.9401Z" fill="#231F20"/>
<path d="M35.1012 41.7942V57.3662L35.1861 57.3594V41.8027L35.1012 41.7942Z" fill="#231F20"/>
<path d="M35.1012 41.4949V41.7154L35.1861 41.724V41.5033L35.1012 41.4949Z" fill="#231F20"/>
<path d="M35.1012 40.8726V41.4949L35.1861 41.5033V40.8813L35.1012 40.8726Z" fill="#231F20"/>
</g>
<path id="Vector 23_2" opacity="0.3" d="M28.1841 89.841C28.3141 89.7518 28.3472 89.5742 28.2581 89.4442C28.169 89.3142 27.9914 89.2811 27.8614 89.3702L28.1841 89.841ZM30.9963 100.115C31.1367 100.043 31.1926 99.8712 31.1211 99.7308L29.9555 97.442C29.884 97.3015 29.7122 97.2457 29.5717 97.3172C29.4313 97.3887 29.3754 97.5606 29.4469 97.701L30.483 99.7355L28.4485 100.772C28.308 100.843 28.2521 101.015 28.3237 101.155C28.3952 101.296 28.567 101.352 28.7075 101.28L30.9963 100.115ZM27.8614 89.3702C25.6933 90.8563 24.7052 92.9999 25.1594 95.0801C25.6122 97.1538 27.4751 99.0575 30.7785 100.132L30.955 99.5889C27.7675 98.5524 26.1118 96.7659 25.7171 94.9584C25.3238 93.1575 26.1591 91.229 28.1841 89.841L27.8614 89.3702Z" fill="#231F20"/>
</g>
</g>
</g>
</g>
</svg>
