<svg width="26" height="26" viewBox="0 0 26 26" fill="none" xmlns="http://www.w3.org/2000/svg">
    <path
        d="M1.08203 5.41675V19.5001H3.2487C3.2487 21.2952 4.70361 22.7501 6.4987 22.7501C8.29378 22.7501 9.7487 21.2952 9.7487 19.5001H16.2487C16.2487 21.2952 17.7036 22.7501 19.4987 22.7501C21.2938 22.7501 22.7487 21.2952 22.7487 19.5001H24.9154V14.0834L22.2642 8.78101C21.8969 8.04651 21.1472 7.58341 20.326 7.58341H17.332V5.41675H1.08203ZM3.2487 7.58341H15.1654V17.3334H8.90446C8.30963 16.6733 7.45736 16.2501 6.4987 16.2501C5.54004 16.2501 4.68777 16.6733 4.09294 17.3334H3.2487V7.58341ZM11.4202 9.25285L8.66536 12.0098L7.04883 10.3933L5.51693 11.9252L8.66536 15.0736L12.9543 10.7869L11.4202 9.25285ZM17.332 9.75008H20.326L22.7487 14.5955V17.3334H21.9045C21.3096 16.6733 20.4574 16.2501 19.4987 16.2501C18.6623 16.2501 17.908 16.5753 17.332 17.0943V9.75008ZM6.4987 18.1459C7.24511 18.1459 7.85286 18.7537 7.85286 19.5001C7.85286 20.2465 7.24511 20.8542 6.4987 20.8542C5.75228 20.8542 5.14453 20.2465 5.14453 19.5001C5.14453 18.7537 5.75228 18.1459 6.4987 18.1459ZM19.4987 18.1459C20.2451 18.1459 20.8529 18.7537 20.8529 19.5001C20.8529 20.2465 20.2451 20.8542 19.4987 20.8542C18.7523 20.8542 18.1445 20.2465 18.1445 19.5001C18.1445 18.7537 18.7523 18.1459 19.4987 18.1459Z"
        fill="#22BF74" />
</svg>