<svg width="1096" height="62" viewBox="0 0 1096 62" fill="none" xmlns="http://www.w3.org/2000/svg">
    <g opacity="0.07">
        <mask id="mask0_4828_1485" style="mask-type:alpha" maskUnits="userSpaceOnUse" x="1050" y="0"
            width="46" height="62">
            <path d="M1095.77 62L1050.11 62L1050.11 0.00490552L1095.77 0.00490952L1095.77 62Z"
                fill="#2491EB" />
        </mask>
        <g mask="url(#mask0_4828_1485)">
            <path d="M1095.76 40.5083L1120.25 0.00484467L1071.28 0.00978423L1095.76 40.5083Z"
                fill="#404D63" />
            <path d="M1050.11 21.5L1074.6 62.0035L1025.62 61.9985L1050.11 21.5Z" fill="#404D63" />
        </g>
        <mask id="mask1_4828_1485" style="mask-type:alpha" maskUnits="userSpaceOnUse" x="1004" y="0"
            width="47" height="62">
            <path d="M1050.11 0L1004.45 -3.99145e-06L1004.45 61.9951L1050.11 61.9951L1050.11 0Z"
                fill="#2491EB" />
        </mask>
        <g mask="url(#mask1_4828_1485)">
            <path d="M1050.11 21.4917L1074.6 61.9952L1025.62 61.9902L1050.11 21.4917Z"
                fill="#404D63" />
            <path d="M1004.45 40.5L1028.94 -0.00345612L979.964 0.00148345L1004.45 40.5Z"
                fill="#404D63" />
        </g>
        <mask id="mask2_4828_1485" style="mask-type:alpha" maskUnits="userSpaceOnUse" x="958" y="0"
            width="47" height="62">
            <path d="M1004.45 62L958.796 62L958.796 0.00490552L1004.45 0.00490952L1004.45 62Z"
                fill="#2491EB" />
        </mask>
        <g mask="url(#mask2_4828_1485)">
            <path d="M1004.45 40.5083L1028.94 0.00484467L979.964 0.00978423L1004.45 40.5083Z"
                fill="#404D63" />
            <path d="M958.794 21.5L983.285 62.0035L934.308 61.9985L958.794 21.5Z" fill="#404D63" />
        </g>
        <mask id="mask3_4828_1485" style="mask-type:alpha" maskUnits="userSpaceOnUse" x="913" y="0"
            width="46" height="62">
            <path d="M958.797 0L913.14 -3.99145e-06L913.14 61.9951L958.797 61.9951L958.797 0Z"
                fill="#2491EB" />
        </mask>
        <g mask="url(#mask3_4828_1485)">
            <path d="M958.794 21.4917L983.285 61.9952L934.308 61.9902L958.794 21.4917Z"
                fill="#404D63" />
            <path d="M913.138 40.5L937.629 -0.00345612L888.651 0.00148345L913.138 40.5Z"
                fill="#404D63" />
        </g>
        <mask id="mask4_4828_1485" style="mask-type:alpha" maskUnits="userSpaceOnUse" x="867" y="0"
            width="47" height="62">
            <path d="M913.137 62L867.48 62L867.48 0.00490552L913.137 0.00490952L913.137 62Z"
                fill="#2491EB" />
        </mask>
        <g mask="url(#mask4_4828_1485)">
            <path d="M913.134 40.5083L937.625 0.00484467L888.648 0.00978423L913.134 40.5083Z"
                fill="#404D63" />
            <path d="M867.478 21.5L891.969 62.0035L842.991 61.9985L867.478 21.5Z" fill="#404D63" />
        </g>
        <mask id="mask5_4828_1485" style="mask-type:alpha" maskUnits="userSpaceOnUse" x="821" y="0"
            width="47" height="62">
            <path d="M867.48 0L821.824 -3.99145e-06L821.824 61.9951L867.48 61.9951L867.48 0Z"
                fill="#2491EB" />
        </mask>
        <g mask="url(#mask5_4828_1485)">
            <path d="M867.478 21.4917L891.969 61.9952L842.991 61.9902L867.478 21.4917Z"
                fill="#404D63" />
            <path d="M821.821 40.5L846.313 -0.00345612L797.335 0.00148345L821.821 40.5Z"
                fill="#404D63" />
        </g>
        <mask id="mask6_4828_1485" style="mask-type:alpha" maskUnits="userSpaceOnUse" x="776" y="0"
            width="46" height="62">
            <path d="M821.824 62L776.167 62L776.167 0.00490552L821.824 0.00490952L821.824 62Z"
                fill="#2491EB" />
        </mask>
        <g mask="url(#mask6_4828_1485)">
            <path d="M821.821 40.5083L846.313 0.00484467L797.335 0.00978423L821.821 40.5083Z"
                fill="#404D63" />
            <path d="M776.165 21.5L800.656 62.0035L751.679 61.9985L776.165 21.5Z" fill="#404D63" />
        </g>
        <mask id="mask7_4828_1485" style="mask-type:alpha" maskUnits="userSpaceOnUse" x="730" y="0"
            width="47" height="62">
            <path d="M776.168 0L730.511 -3.99145e-06L730.511 61.9951L776.168 61.9951L776.168 0Z"
                fill="#2491EB" />
        </mask>
        <g mask="url(#mask7_4828_1485)">
            <path d="M776.165 21.4917L800.656 61.9952L751.679 61.9902L776.165 21.4917Z"
                fill="#404D63" />
            <path d="M730.509 40.5L755 -0.00345612L706.023 0.00148345L730.509 40.5Z" fill="#404D63" />
        </g>
        <mask id="mask8_4828_1485" style="mask-type:alpha" maskUnits="userSpaceOnUse" x="593" y="0"
            width="47" height="62">
            <path d="M639.195 62L593.538 62L593.538 0.00490552L639.195 0.00490952L639.195 62Z"
                fill="#2491EB" />
        </mask>
        <g mask="url(#mask8_4828_1485)">
            <path d="M639.193 40.5083L663.684 0.00484467L614.706 0.00978423L639.193 40.5083Z"
                fill="#404D63" />
            <path d="M593.536 21.5L618.027 62.0035L569.05 61.9985L593.536 21.5Z" fill="#404D63" />
        </g>
        <mask id="mask9_4828_1485" style="mask-type:alpha" maskUnits="userSpaceOnUse" x="547" y="0"
            width="47" height="62">
            <path d="M593.539 0L547.882 -3.99145e-06L547.882 61.9951L593.539 61.9951L593.539 0Z"
                fill="#2491EB" />
        </mask>
        <g mask="url(#mask9_4828_1485)">
            <path d="M593.536 21.4917L618.027 61.9952L569.05 61.9902L593.536 21.4917Z"
                fill="#404D63" />
            <path d="M547.88 40.5L572.371 -0.00345612L523.394 0.00148345L547.88 40.5Z"
                fill="#404D63" />
        </g>
        <mask id="mask10_4828_1485" style="mask-type:alpha" maskUnits="userSpaceOnUse" x="684" y="0"
            width="47" height="62">
            <path d="M730.512 62L684.855 62L684.855 0.00490552L730.512 0.00490952L730.512 62Z"
                fill="#2491EB" />
        </mask>
        <g mask="url(#mask10_4828_1485)">
            <path d="M730.509 40.5083L755 0.00484467L706.023 0.00978423L730.509 40.5083Z"
                fill="#404D63" />
            <path d="M684.853 21.5L709.344 62.0035L660.366 61.9985L684.853 21.5Z" fill="#404D63" />
        </g>
        <mask id="mask11_4828_1485" style="mask-type:alpha" maskUnits="userSpaceOnUse" x="639" y="0"
            width="46" height="62">
            <path d="M684.855 0L639.199 -3.99145e-06L639.199 61.9951L684.855 61.9951L684.855 0Z"
                fill="#2491EB" />
        </mask>
        <g mask="url(#mask11_4828_1485)">
            <path d="M684.853 21.4917L709.344 61.9952L660.366 61.9902L684.853 21.4917Z"
                fill="#404D63" />
            <path d="M639.196 40.5L663.688 -0.00345612L614.71 0.00148345L639.196 40.5Z"
                fill="#404D63" />
        </g>
        <mask id="mask12_4828_1485" style="mask-type:alpha" maskUnits="userSpaceOnUse" x="502" y="0"
            width="46" height="62">
            <path d="M547.883 62L502.226 62L502.226 0.00490552L547.883 0.00490952L547.883 62Z"
                fill="#2491EB" />
        </mask>
        <g mask="url(#mask12_4828_1485)">
            <path d="M547.88 40.5083L572.371 0.00484467L523.394 0.00978423L547.88 40.5083Z"
                fill="#404D63" />
            <path d="M502.224 21.5L526.715 62.0035L477.737 61.9985L502.224 21.5Z" fill="#404D63" />
        </g>
        <mask id="mask13_4828_1485" style="mask-type:alpha" maskUnits="userSpaceOnUse" x="456" y="0"
            width="47" height="62">
            <path d="M502.227 0L456.57 -3.99145e-06L456.57 61.9951L502.227 61.9951L502.227 0Z"
                fill="#2491EB" />
        </mask>
        <g mask="url(#mask13_4828_1485)">
            <path d="M502.224 21.4917L526.715 61.9952L477.737 61.9902L502.224 21.4917Z"
                fill="#404D63" />
            <path d="M456.568 40.5L481.059 -0.00345612L432.081 0.00148345L456.568 40.5Z"
                fill="#404D63" />
        </g>
        <mask id="mask14_4828_1485" style="mask-type:alpha" maskUnits="userSpaceOnUse" x="410" y="0"
            width="47" height="62">
            <path d="M456.57 62L410.913 62L410.913 0.00490552L456.57 0.00490952L456.57 62Z"
                fill="#2491EB" />
        </mask>
        <g mask="url(#mask14_4828_1485)">
            <path d="M456.568 40.5083L481.059 0.00484467L432.081 0.00978423L456.568 40.5083Z"
                fill="#404D63" />
            <path d="M410.911 21.5L435.402 62.0035L386.425 61.9985L410.911 21.5Z" fill="#404D63" />
        </g>
        <mask id="mask15_4828_1485" style="mask-type:alpha" maskUnits="userSpaceOnUse" x="365" y="0"
            width="46" height="62">
            <path d="M410.914 0L365.257 -3.99145e-06L365.257 61.9951L410.914 61.9951L410.914 0Z"
                fill="#2491EB" />
        </mask>
        <g mask="url(#mask15_4828_1485)">
            <path d="M410.911 21.4917L435.402 61.9952L386.425 61.9902L410.911 21.4917Z"
                fill="#404D63" />
            <path d="M365.255 40.5L389.746 -0.00345612L340.769 0.00148345L365.255 40.5Z"
                fill="#404D63" />
        </g>
        <mask id="mask16_4828_1485" style="mask-type:alpha" maskUnits="userSpaceOnUse" x="319" y="0"
            width="47" height="62">
            <path d="M365.254 62L319.597 62L319.597 0.00490552L365.254 0.00490952L365.254 62Z"
                fill="#2491EB" />
        </mask>
        <g mask="url(#mask16_4828_1485)">
            <path d="M365.251 40.5083L389.742 0.00484467L340.765 0.00978423L365.251 40.5083Z"
                fill="#404D63" />
            <path d="M319.595 21.5L344.086 62.0035L295.109 61.9985L319.595 21.5Z" fill="#404D63" />
        </g>
        <mask id="mask17_4828_1485" style="mask-type:alpha" maskUnits="userSpaceOnUse" x="273" y="0"
            width="47" height="62">
            <path d="M319.598 0L273.941 -3.99145e-06L273.941 61.9951L319.598 61.9951L319.598 0Z"
                fill="#2491EB" />
        </mask>
        <g mask="url(#mask17_4828_1485)">
            <path d="M319.595 21.4917L344.086 61.9952L295.109 61.9902L319.595 21.4917Z"
                fill="#404D63" />
            <path d="M273.939 40.5L298.43 -0.00345612L249.452 0.00148345L273.939 40.5Z"
                fill="#404D63" />
        </g>
        <mask id="mask18_4828_1485" style="mask-type:alpha" maskUnits="userSpaceOnUse" x="228" y="0"
            width="46" height="62">
            <path d="M273.941 62L228.284 62L228.284 0.00490552L273.941 0.00490952L273.941 62Z"
                fill="#2491EB" />
        </mask>
        <g mask="url(#mask18_4828_1485)">
            <path d="M273.939 40.5083L298.43 0.00484467L249.452 0.00978423L273.939 40.5083Z"
                fill="#404D63" />
            <path d="M228.282 21.5L252.773 62.0035L203.796 61.9985L228.282 21.5Z" fill="#404D63" />
        </g>
        <mask id="mask19_4828_1485" style="mask-type:alpha" maskUnits="userSpaceOnUse" x="182" y="0"
            width="47" height="62">
            <path d="M228.285 0L182.628 -3.99145e-06L182.628 61.9951L228.285 61.9951L228.285 0Z"
                fill="#2491EB" />
        </mask>
        <g mask="url(#mask19_4828_1485)">
            <path d="M228.282 21.4917L252.773 61.9952L203.796 61.9902L228.282 21.4917Z"
                fill="#404D63" />
            <path d="M182.626 40.5L207.117 -0.00345612L158.14 0.00148345L182.626 40.5Z"
                fill="#404D63" />
        </g>
        <mask id="mask20_4828_1485" style="mask-type:alpha" maskUnits="userSpaceOnUse" x="45" y="0"
            width="47" height="62">
            <path d="M91.3125 62L45.6556 62L45.6556 0.00490552L91.3125 0.00490952L91.3125 62Z"
                fill="#2491EB" />
        </mask>
        <g mask="url(#mask20_4828_1485)">
            <path d="M91.3098 40.5083L115.801 0.00484467L66.8234 0.00978423L91.3098 40.5083Z"
                fill="#404D63" />
            <path d="M45.6535 21.5L70.1445 62.0035L21.1671 61.9985L45.6535 21.5Z" fill="#404D63" />
        </g>
        <mask id="mask21_4828_1485" style="mask-type:alpha" maskUnits="userSpaceOnUse" x="0" y="0"
            width="46" height="62">
            <path
                d="M45.6562 0L-0.000663757 -3.99145e-06L-0.000669177 61.9951L45.6562 61.9951L45.6562 0Z"
                fill="#2491EB" />
        </mask>
        <g mask="url(#mask21_4828_1485)">
            <path d="M45.6535 21.4917L70.1445 61.9952L21.1671 61.9902L45.6535 21.4917Z"
                fill="#404D63" />
            <path d="M-0.00272369 40.5L24.4883 -0.00345612L-24.4891 0.00148345L-0.00272369 40.5Z"
                fill="#404D63" />
        </g>
        <mask id="mask22_4828_1485" style="mask-type:alpha" maskUnits="userSpaceOnUse" x="136" y="0"
            width="47" height="62">
            <path d="M182.629 62L136.972 62L136.972 0.00490552L182.629 0.00490952L182.629 62Z"
                fill="#2491EB" />
        </mask>
        <g mask="url(#mask22_4828_1485)">
            <path d="M182.626 40.5083L207.117 0.00484467L158.14 0.00978423L182.626 40.5083Z"
                fill="#404D63" />
            <path d="M136.97 21.5L161.461 62.0035L112.484 61.9985L136.97 21.5Z" fill="#404D63" />
        </g>
        <mask id="mask23_4828_1485" style="mask-type:alpha" maskUnits="userSpaceOnUse" x="91" y="0"
            width="46" height="62">
            <path d="M136.973 0L91.3157 -3.99145e-06L91.3157 61.9951L136.973 61.9951L136.973 0Z"
                fill="#2491EB" />
        </mask>
        <g mask="url(#mask23_4828_1485)">
            <path d="M136.97 21.4917L161.461 61.9952L112.484 61.9902L136.97 21.4917Z" fill="#404D63" />
            <path d="M91.3137 40.5L115.805 -0.00345612L66.8273 0.00148345L91.3137 40.5Z"
                fill="#404D63" />
        </g>
    </g>
</svg>