<svg width="36" height="36" viewBox="0 0 36 36" fill="none" xmlns="http://www.w3.org/2000/svg">
<circle cx="18" cy="18" r="17.25" stroke="#404D63" stroke-opacity="0.15" stroke-width="1.5"/>
<g clip-path="url(#clip0_4849_3184)">
<path d="M26.7263 13.7681C26.5132 13.0086 25.8984 12.4139 25.1102 12.2107C24.0515 11.8169 13.7973 11.6239 10.8226 12.222C10.0345 12.4274 9.4173 13.0199 9.2065 13.7794C8.72869 15.7994 8.69239 20.1668 9.21822 22.232C9.43136 22.9915 10.0462 23.5863 10.8344 23.7894C12.9306 24.2544 22.8968 24.3198 25.1219 23.7894C25.9101 23.584 26.5273 22.9915 26.7381 22.232C27.2475 20.0314 27.2838 15.9349 26.7263 13.7681Z" fill="#FF0000"/>
<path d="M20.9891 17.9996L16.2109 15.3589V20.6404L20.9891 17.9996Z" fill="white"/>
</g>
<defs>
<clipPath id="clip0_4849_3184">
<rect width="18.6207" height="12.4138" fill="white" transform="translate(8.69141 11.793)"/>
</clipPath>
</defs>
</svg>
